<svg id="svg" version="1.1" xmlns="http://www.w3.org/2000/svg" xmlns:xlink="http://www.w3.org/1999/xlink" width="400" height="598.690364826941" viewBox="0, 0, 400,598.690364826941"><g id="svgg"><path id="path0" d="M0.000 0.202 C 0.000 0.483,7.079 21.719,7.479 22.638 C 7.658 23.050,8.834 26.501,10.092 30.309 C 11.350 34.116,12.531 37.568,12.718 37.979 C 12.904 38.391,13.559 40.017,14.173 41.592 C 16.077 46.473,19.431 53.497,22.097 58.185 C 22.682 59.214,23.446 60.561,23.794 61.179 C 25.560 64.313,32.064 73.884,33.484 75.439 C 33.693 75.668,34.369 76.504,34.986 77.297 C 38.459 81.757,46.970 90.665,51.224 94.294 C 52.310 95.220,53.816 96.535,54.569 97.217 C 56.140 98.637,62.056 103.155,65.103 105.262 C 68.431 107.563,73.078 110.596,74.088 111.127 C 74.602 111.397,75.108 111.719,75.210 111.843 C 75.313 111.967,75.903 112.321,76.520 112.629 C 77.138 112.937,77.727 113.292,77.830 113.417 C 78.424 114.143,91.186 120.613,97.474 123.376 C 99.121 124.100,101.141 124.992,101.964 125.359 C 104.389 126.440,111.935 129.343,113.662 129.859 C 116.298 130.648,116.246 130.845,112.321 134.922 C 105.180 142.337,101.020 147.421,96.758 153.938 C 94.307 157.687,90.552 164.087,90.552 164.517 C 90.552 164.610,90.141 165.560,89.639 166.628 C 86.566 173.163,84.817 178.599,82.696 188.213 C 82.491 189.139,82.216 190.865,82.083 192.049 C 81.951 193.232,81.660 194.200,81.437 194.200 C 80.967 194.200,73.889 196.356,72.778 196.838 C 72.367 197.016,71.272 197.356,70.346 197.592 C 66.728 198.514,57.144 201.823,51.824 203.985 C 48.794 205.217,42.106 208.526,41.971 208.860 C 41.902 209.029,41.668 209.167,41.451 209.167 C 41.002 209.167,35.073 213.026,33.723 214.196 C 27.057 219.975,22.368 226.649,20.428 233.115 C 20.089 234.247,19.654 235.678,19.462 236.296 C 18.668 238.847,18.248 244.666,18.490 249.766 C 18.756 255.371,18.842 255.969,20.373 262.862 C 20.921 265.332,21.552 268.195,21.774 269.224 C 21.997 270.253,22.310 271.240,22.470 271.418 C 22.709 271.683,26.480 269.680,27.877 268.545 C 28.082 268.378,29.598 267.385,31.244 266.339 C 36.055 263.282,40.560 260.280,41.093 259.775 C 41.365 259.518,41.732 259.308,41.908 259.308 C 42.085 259.308,42.452 259.089,42.724 258.821 C 43.381 258.173,50.113 254.069,50.518 254.069 C 50.692 254.069,51.058 253.855,51.330 253.594 C 54.053 250.975,68.062 246.476,75.117 245.954 L 78.204 245.726 78.204 250.977 C 78.204 256.101,78.184 256.233,77.362 256.465 C 76.899 256.596,75.123 257.037,73.416 257.445 C 70.228 258.206,65.874 259.489,64.546 260.058 C 64.135 260.234,63.124 260.578,62.301 260.823 C 61.478 261.067,60.215 261.522,59.495 261.834 C 54.780 263.874,49.270 266.465,49.018 266.761 C 48.915 266.881,48.326 267.230,47.708 267.537 C 45.514 268.626,39.757 272.760,37.418 274.926 C 36.698 275.594,35.995 276.141,35.856 276.143 C 34.558 276.159,26.757 286.843,24.516 291.674 C 23.752 293.321,22.970 295.005,22.778 295.416 C 22.586 295.828,22.167 297.091,21.847 298.223 C 19.210 307.557,18.891 315.020,20.527 329.093 C 21.040 333.499,21.293 334.680,21.707 334.586 C 21.997 334.520,25.608 332.569,29.732 330.251 C 37.410 325.936,42.193 323.512,47.147 321.425 C 48.690 320.774,50.458 320.022,51.076 319.754 C 51.693 319.485,52.872 319.065,53.695 318.821 C 54.518 318.576,55.529 318.226,55.940 318.042 C 57.085 317.530,60.792 316.576,64.733 315.779 C 66.688 315.383,69.111 314.889,70.117 314.681 C 71.123 314.472,74.196 314.194,76.946 314.062 L 81.946 313.822 81.970 325.386 C 81.994 337.216,82.057 338.476,83.454 355.285 C 86.304 389.581,84.228 398.665,70.319 412.750 C 54.434 428.838,52.019 434.399,54.249 449.766 C 54.682 452.750,55.105 455.394,55.189 455.641 C 55.272 455.887,54.465 456.809,53.395 457.688 C 45.145 464.468,34.581 477.084,29.168 486.623 C 27.096 490.274,22.079 500.647,22.074 501.289 C 22.073 501.455,21.840 502.034,21.557 502.577 C 21.274 503.120,20.758 504.467,20.410 505.570 C 20.063 506.674,19.637 507.914,19.464 508.326 C 18.447 510.752,16.120 519.628,15.140 524.819 C 11.972 541.604,11.635 555.459,13.887 576.427 C 16.140 597.403,16.588 600.195,17.359 598.036 C 17.487 597.675,18.091 596.539,18.700 595.510 C 19.310 594.481,19.924 593.386,20.066 593.078 C 20.208 592.769,21.981 589.546,24.006 585.916 C 26.032 582.287,27.689 579.129,27.689 578.901 C 27.689 578.672,27.826 578.485,27.993 578.485 C 28.161 578.485,28.670 577.685,29.125 576.707 C 29.580 575.730,30.340 574.256,30.816 573.433 C 31.291 572.610,32.157 571.094,32.740 570.065 C 33.323 569.036,34.101 567.689,34.469 567.072 C 34.837 566.455,35.861 564.703,36.745 563.180 C 39.538 558.369,39.444 558.522,43.331 552.479 C 46.439 547.645,48.442 544.636,50.055 542.376 C 50.936 541.141,51.948 539.720,52.302 539.217 C 53.076 538.119,58.381 531.325,58.924 530.734 C 59.135 530.505,60.141 529.327,61.160 528.115 C 65.777 522.624,75.379 513.620,81.221 509.303 C 82.340 508.476,83.424 507.658,83.630 507.485 C 83.835 507.312,85.098 506.506,86.436 505.693 C 87.774 504.881,88.952 504.131,89.055 504.026 C 89.658 503.412,99.133 498.736,102.211 497.534 C 104.221 496.749,107.204 495.765,113.190 493.912 C 131.444 488.263,164.466 491.258,184.952 500.422 C 185.614 500.718,188.275 501.897,190.866 503.043 C 195.286 504.997,202.757 508.712,207.858 511.492 C 211.309 513.373,214.105 514.930,215.341 515.659 C 215.959 516.023,217.053 516.646,217.774 517.044 C 218.494 517.441,219.673 518.107,220.393 518.523 C 238.754 529.140,254.121 536.859,264.680 540.772 C 265.369 541.027,265.835 541.038,265.990 540.803 C 266.122 540.602,267.401 538.601,268.832 536.356 C 270.263 534.110,271.525 532.189,271.638 532.086 C 271.751 531.983,272.514 530.889,273.335 529.654 C 274.155 528.419,274.914 527.325,275.020 527.222 C 275.127 527.119,275.713 526.361,276.321 525.538 C 284.032 515.108,296.921 502.583,308.382 494.384 C 309.894 493.302,311.300 492.285,311.506 492.125 C 311.999 491.741,317.738 488.011,320.112 486.531 C 325.041 483.458,342.040 474.462,342.917 474.462 C 343.019 474.462,343.991 474.057,345.078 473.563 C 348.670 471.927,354.484 469.555,358.092 468.254 C 360.047 467.549,361.983 466.817,362.395 466.628 C 362.806 466.438,364.069 466.007,365.201 465.669 C 366.333 465.331,367.596 464.910,368.007 464.733 C 368.419 464.556,369.429 464.220,370.253 463.985 C 371.076 463.751,372.086 463.411,372.498 463.231 C 373.595 462.750,377.799 461.556,387.278 459.034 C 396.493 456.581,399.742 455.681,399.948 455.524 C 400.074 455.427,398.024 448.583,397.382 446.960 C 395.170 441.367,392.627 437.343,386.152 429.186 C 383.176 425.437,383.031 425.239,380.326 421.210 C 375.693 414.310,374.849 410.253,374.855 394.904 C 374.857 389.323,375.045 382.588,375.273 379.937 C 376.294 368.055,376.427 354.393,376.427 261.308 L 376.427 164.586 377.438 162.836 C 377.994 161.873,378.546 161.001,378.666 160.898 C 378.786 160.795,379.546 159.785,380.355 158.653 C 381.165 157.521,381.918 156.511,382.028 156.408 C 382.139 156.305,383.227 154.958,384.445 153.414 C 385.664 151.871,386.888 150.355,387.165 150.047 C 387.442 149.738,388.178 148.812,388.799 147.989 C 389.420 147.166,390.158 146.214,390.439 145.873 C 391.318 144.810,393.639 141.068,393.639 140.716 C 393.639 140.531,393.776 140.324,393.944 140.256 C 394.514 140.023,397.343 134.500,397.080 134.134 C 396.937 133.934,395.136 132.643,393.078 131.267 C 391.020 129.890,387.736 127.661,385.781 126.314 C 383.826 124.966,381.908 123.651,381.520 123.391 C 381.131 123.131,380.373 122.581,379.836 122.167 C 379.298 121.754,378.017 120.833,376.988 120.120 C 375.959 119.408,374.949 118.688,374.743 118.520 C 374.334 118.187,369.250 114.393,367.600 113.190 C 366.517 112.400,362.667 109.425,361.085 108.155 C 360.571 107.742,359.662 107.022,359.066 106.555 C 358.470 106.088,356.787 104.718,355.324 103.510 C 353.862 102.302,351.925 100.703,351.020 99.955 C 350.115 99.208,349.117 98.344,348.802 98.036 C 348.487 97.727,347.680 97.038,347.009 96.504 C 341.557 92.170,328.049 79.136,320.674 71.094 C 318.718 68.962,316.782 66.858,316.370 66.418 C 315.959 65.979,314.952 64.789,314.134 63.773 C 313.315 62.758,312.455 61.759,312.221 61.553 C 311.731 61.121,306.275 54.330,303.896 51.192 C 301.517 48.053,301.572 48.076,299.479 49.355 C 290.900 54.599,276.056 62.309,272.404 63.418 C 271.890 63.575,271.300 63.828,271.094 63.982 C 270.889 64.136,270.047 64.474,269.224 64.733 C 268.400 64.993,267.558 65.329,267.353 65.481 C 267.147 65.633,266.052 66.044,264.920 66.394 C 263.789 66.745,262.526 67.179,262.114 67.359 C 261.118 67.795,255.280 69.705,252.011 70.665 C 239.633 74.300,228.124 76.715,216.090 78.205 C 212.797 78.613,208.924 79.111,207.484 79.313 C 199.064 80.491,167.977 80.757,157.717 79.738 C 129.896 76.976,105.296 71.619,86.249 64.175 C 85.014 63.693,82.825 62.842,81.384 62.284 C 79.944 61.726,77.876 60.871,76.790 60.383 C 75.703 59.894,74.729 59.495,74.625 59.495 C 74.121 59.495,59.639 52.258,56.688 50.532 C 54.836 49.448,52.783 48.251,52.125 47.872 C 50.513 46.943,43.266 42.198,43.031 41.919 C 42.928 41.797,41.918 41.031,40.786 40.217 C 34.090 35.404,28.184 30.016,21.132 22.290 C 19.079 20.040,16.642 17.412,15.716 16.450 C 14.790 15.488,13.291 13.877,12.385 12.869 C 11.480 11.862,9.015 9.186,6.908 6.922 C 4.801 4.659,2.499 2.175,1.793 1.403 C 0.607 0.108,0.000 -0.299,0.000 0.202 M29.935 41.416 C 47.297 55.823,71.091 67.939,98.036 76.096 C 165.902 96.640,245.225 90.248,296.197 60.128 L 299.583 58.127 303.113 62.447 C 315.833 78.017,333.010 95.087,349.547 108.590 C 360.764 117.750,371.419 125.696,384.583 134.716 C 385.878 135.604,387.013 136.451,387.104 136.598 C 387.388 137.057,383.838 142.172,379.996 146.841 C 375.110 152.779,372.237 156.687,370.534 159.713 L 369.130 162.208 368.918 264.172 C 368.766 337.139,368.580 367.839,368.263 372.123 C 365.718 406.551,367.261 416.812,376.885 429.467 C 385.226 440.435,386.916 442.828,388.528 445.948 C 390.820 450.385,390.886 450.183,386.810 451.219 C 332.020 465.149,289.815 491.626,265.956 527.035 C 264.292 529.504,262.886 531.582,262.832 531.651 C 262.186 532.486,242.805 522.547,222.451 510.941 C 186.208 490.277,165.887 483.644,138.821 483.644 C 90.773 483.644,59.808 506.686,25.046 568.305 C 20.903 575.650,21.219 575.632,20.601 568.569 C 14.582 499.779,50.331 450.221,115.435 437.098 C 119.946 436.189,129.301 434.799,130.908 434.799 C 132.955 434.799,140.554 429.343,145.749 424.144 C 156.656 413.229,161.802 400.395,162.630 382.050 L 162.878 376.562 161.794 376.129 C 159.217 375.098,156.759 374.852,150.234 374.970 C 146.529 375.038,141.288 375.098,138.586 375.105 L 133.674 375.117 132.646 378.859 C 125.595 404.520,107.512 424.374,78.458 438.355 C 73.092 440.937,62.017 445.650,61.315 445.650 C 61.137 445.650,60.996 444.261,61.001 442.563 C 61.024 434.784,63.484 430.593,74.964 418.773 C 92.266 400.959,94.227 392.180,90.484 349.298 C 89.607 339.245,89.306 318.701,89.925 311.073 L 90.233 307.272 87.305 306.957 C 70.687 305.168,53.057 309.299,33.360 319.596 C 30.202 321.247,27.508 322.488,27.373 322.353 C 26.692 321.671,27.140 308.478,27.970 304.768 C 32.688 283.680,50.974 269.535,81.478 263.375 L 85.688 262.525 85.688 250.196 L 85.688 237.867 79.981 238.099 C 62.874 238.796,53.680 242.312,33.272 255.961 C 30.164 258.039,27.542 259.659,27.444 259.561 C 27.036 259.154,26.194 253.208,25.977 249.205 C 25.156 234.075,31.792 223.025,46.586 214.885 C 53.250 211.217,59.222 208.959,76.894 203.424 C 82.451 201.683,87.426 200.092,87.949 199.887 C 88.849 199.536,88.927 199.280,89.372 195.221 C 91.719 173.823,100.227 158.293,121.868 135.904 C 126.303 131.316,129.869 127.511,129.793 127.448 C 129.716 127.385,126.960 126.452,123.667 125.374 C 69.878 107.768,35.328 77.569,19.426 34.260 C 18.826 32.625,18.335 31.119,18.335 30.913 C 18.335 30.706,20.229 32.391,22.544 34.657 C 24.860 36.923,28.185 39.965,29.935 41.416 M273.714 128.405 C 265.357 134.021,250.630 137.682,233.858 138.311 L 227.085 138.566 225.483 140.471 C 216.029 151.716,211.790 169.564,211.791 198.129 C 211.791 203.891,211.898 210.229,212.029 212.212 L 212.268 215.818 215.489 216.774 C 223.666 219.201,230.813 220.725,239.354 221.862 C 260.894 224.732,287.062 222.726,305.398 216.801 L 307.147 216.235 307.082 191.467 C 307.016 166.881,307.257 160.984,308.531 155.907 C 308.896 154.451,298.376 144.424,289.429 137.702 C 284.810 134.231,275.243 127.565,274.966 127.623 C 274.895 127.638,274.331 127.990,273.714 128.405 M177.549 136.415 C 163.891 138.500,152.435 147.546,145.234 161.930 C 142.773 166.847,142.644 166.511,146.995 166.511 C 150.426 166.511,152.023 166.738,159.027 168.226 C 160.365 168.510,163.244 168.854,165.426 168.990 C 169.998 169.276,169.528 169.591,171.226 165.108 C 174.972 155.215,184.957 144.248,194.511 139.532 L 197.339 138.136 195.258 137.531 C 189.999 136.002,183.098 135.567,177.549 136.415 M276.674 137.786 C 277.721 138.452,278.746 139.131,278.952 139.296 C 279.158 139.461,281.010 140.861,283.068 142.408 C 289.137 146.970,293.744 150.847,298.137 155.090 C 300.779 157.642,300.847 157.753,300.499 158.945 C 299.648 161.852,299.249 174.160,299.419 192.233 L 299.593 210.669 298.253 210.995 C 283.377 214.613,277.262 215.307,260.243 215.306 C 244.371 215.306,236.711 214.495,225.257 211.606 C 223.096 211.061,220.970 210.526,220.533 210.418 C 218.886 210.009,218.781 185.217,220.387 175.865 C 220.581 174.733,221.013 172.039,221.346 169.878 C 221.969 165.841,222.244 164.761,224.210 158.653 C 225.494 154.662,228.162 149.321,229.903 147.258 L 231.057 145.889 238.132 145.526 C 246.693 145.087,257.203 143.594,259.022 142.559 C 259.379 142.355,259.917 142.189,260.217 142.189 C 261.636 142.189,270.316 138.938,273.152 137.345 C 274.801 136.419,274.456 136.376,276.674 137.786 M174.801 145.463 C 174.393 146.029,173.750 146.829,173.372 147.242 C 172.276 148.438,169.392 152.283,168.490 153.752 C 167.834 154.820,164.461 161.303,164.454 161.509 C 164.451 161.621,155.528 159.769,155.386 159.627 C 155.301 159.542,155.483 159.162,155.790 158.782 C 159.281 154.466,160.615 153.040,163.021 151.056 C 166.722 148.002,171.955 145.219,175.423 144.460 C 175.489 144.446,175.208 144.897,174.801 145.463 M135.828 273.153 L 135.828 351.848 142.470 351.509 C 150.496 351.099,157.339 351.165,159.172 351.671 L 160.524 352.044 160.524 274.439 L 160.524 196.834 159.682 196.663 C 159.219 196.568,157.661 196.389,156.221 196.264 C 154.780 196.139,152.170 195.788,150.421 195.484 C 148.672 195.179,144.673 194.824,141.534 194.694 L 135.828 194.457 135.828 273.153 M148.429 202.815 C 150.039 203.025,151.735 203.281,152.198 203.383 L 153.040 203.569 153.040 273.480 L 153.040 343.392 149.239 343.653 C 147.148 343.797,144.960 344.011,144.375 344.128 L 143.312 344.341 143.312 273.386 L 143.312 202.432 144.407 202.432 C 145.009 202.432,146.820 202.604,148.429 202.815 M213.658 271.282 C 213.658 290.469,213.777 298.597,214.059 298.597 C 214.280 298.597,216.258 298.185,218.455 297.681 C 245.368 291.516,274.138 291.454,301.494 297.501 C 304.219 298.104,306.619 298.597,306.826 298.597 C 307.076 298.597,307.203 289.375,307.203 271.282 C 307.203 256.258,307.077 243.969,306.922 243.972 C 306.768 243.975,305.379 244.295,303.835 244.683 C 277.577 251.281,243.263 251.282,216.963 244.686 C 215.385 244.290,213.996 243.966,213.876 243.966 C 213.756 243.966,213.658 256.258,213.658 271.282 M238.915 256.130 C 257.584 258.095,275.875 257.548,293.639 254.494 L 299.719 253.448 299.719 271.375 L 299.719 289.302 298.690 289.083 C 294.292 288.147,283.416 286.708,274.627 285.899 C 269.033 285.384,251.797 285.386,246.233 285.902 C 236.113 286.841,226.675 288.079,222.357 289.033 L 221.141 289.302 221.141 271.375 L 221.141 253.448 227.222 254.494 C 230.566 255.069,235.828 255.805,238.915 256.130 M248.831 319.796 C 244.637 320.109,234.650 321.468,229.935 322.369 C 225.748 323.168,222.903 323.862,215.026 326.004 C 213.668 326.373,213.602 326.459,213.830 327.557 C 215.193 334.110,214.169 353.423,211.949 363.065 C 207.242 383.501,194.856 407.889,177.876 430.150 L 176.988 431.315 182.881 431.569 C 205.381 432.538,223.200 437.532,248.513 449.963 C 252.273 451.810,251.758 451.893,256.011 448.742 C 258.660 446.779,262.684 443.019,268.849 436.745 C 284.077 421.250,290.452 417.135,301.964 415.371 C 303.508 415.135,305.318 414.855,305.987 414.750 L 307.203 414.559 307.203 370.483 L 307.203 326.408 302.853 325.182 C 287.467 320.849,264.903 318.599,248.831 319.796 M271.721 327.450 C 280.314 328.077,298.394 331.172,299.412 332.190 C 299.583 332.361,299.680 349.492,299.628 370.258 L 299.532 408.014 298.410 408.275 C 285.484 411.274,278.560 415.832,263.709 431.120 C 253.630 441.497,251.709 443.123,250.355 442.422 C 248.881 441.659,241.279 438.167,241.092 438.167 C 241.001 438.167,239.969 437.729,238.798 437.194 C 235.178 435.541,234.320 435.173,234.083 435.173 C 233.958 435.173,233.141 434.859,232.269 434.475 C 225.198 431.365,213.858 428.030,205.239 426.527 C 202.975 426.133,200.435 425.651,199.595 425.458 C 198.755 425.265,196.524 424.990,194.637 424.848 C 192.750 424.705,191.207 424.539,191.207 424.478 C 191.207 424.417,192.191 422.883,193.394 421.070 C 199.513 411.846,202.861 406.221,206.791 398.567 C 209.049 394.170,212.909 385.759,212.909 385.238 C 212.909 385.102,213.229 384.285,213.619 383.422 C 214.010 382.559,214.873 380.168,215.538 378.110 C 216.203 376.052,216.892 374.032,217.069 373.620 C 217.485 372.654,218.755 367.485,219.689 362.956 C 221.205 355.598,221.542 352.219,221.764 342.097 L 221.988 331.901 223.342 331.555 C 224.087 331.365,225.706 331.010,226.941 330.767 C 228.176 330.523,229.607 330.179,230.122 330.002 C 236.265 327.888,258.790 326.506,271.721 327.450 M154.880 384.565 C 154.824 388.333,153.558 395.438,152.230 399.434 C 151.181 402.589,149.202 407.202,148.644 407.791 C 148.387 408.063,148.176 408.447,148.176 408.645 C 148.176 410.641,140.602 419.264,135.260 423.349 C 134.029 424.291,132.711 425.301,132.332 425.593 C 130.514 426.996,128.323 427.657,123.667 428.208 C 119.137 428.744,111.673 430.066,107.764 431.024 C 106.838 431.251,105.688 431.527,105.207 431.636 C 104.702 431.751,105.935 430.548,108.133 428.780 C 115.340 422.983,122.572 415.214,127.435 408.045 C 128.761 406.090,129.460 404.953,131.576 401.310 C 133.787 397.501,137.048 390.005,138.689 384.957 C 139.514 382.420,138.925 382.569,148.457 382.476 L 154.911 382.413 154.880 384.565 " stroke="none" fill="#040404" fill-rule="evenodd"></path><path id="path1" d="M18.895 32.180 C 19.729 34.935,23.208 43.163,25.618 48.082 C 43.387 84.341,76.764 110.162,126.362 126.021 L 130.553 127.361 122.799 135.251 C 100.189 158.256,92.087 173.317,89.222 197.665 L 88.968 199.819 81.247 202.275 C 59.411 209.222,56.583 210.225,50.220 213.287 C 33.511 221.327,26.193 231.657,26.193 247.203 C 26.193 251.114,27.039 258.614,27.553 259.266 C 27.616 259.345,31.251 257.052,35.630 254.169 C 54.746 241.584,64.748 238.010,80.917 237.987 L 86.062 237.979 86.062 250.302 C 86.062 264.078,86.356 262.721,83.255 263.230 C 47.698 269.065,27.358 288.213,27.323 315.881 C 27.314 322.486,27.381 322.640,29.665 321.305 C 48.121 310.516,68.872 305.152,86.477 306.619 C 90.917 306.989,90.712 306.702,90.133 311.737 C 89.217 319.712,90.263 355.680,91.470 357.696 C 91.987 358.559,92.465 377.266,92.097 382.226 C 90.778 400.006,88.183 405.514,74.443 419.693 C 63.961 430.511,61.343 434.915,61.268 441.860 C 61.226 445.776,60.856 445.690,67.048 443.199 C 103.203 428.657,124.836 407.176,132.596 378.110 L 133.396 375.117 143.873 374.792 C 154.877 374.452,159.441 374.725,161.628 375.856 L 162.769 376.446 162.769 380.300 C 162.769 403.663,153.368 421.526,135.019 433.028 C 131.967 434.941,131.596 435.075,128.658 435.316 C 97.079 437.910,65.250 453.532,46.470 475.656 C 26.064 499.694,16.590 536.052,21.204 572.619 L 21.432 574.425 23.564 570.561 C 56.995 509.982,86.502 486.395,132.554 483.438 C 159.859 481.685,187.289 489.967,221.989 510.443 C 236.339 518.911,260.470 531.367,262.451 531.330 C 262.677 531.326,263.524 530.273,264.332 528.991 C 285.947 494.712,327.526 467.389,380.355 452.747 C 383.442 451.892,386.925 450.913,388.095 450.572 L 390.221 449.953 388.969 447.260 C 387.362 443.804,385.049 440.377,379.785 433.657 C 370.334 421.589,368.395 417.286,367.399 406.174 C 366.914 400.757,367.205 381.672,367.890 373.994 C 368.156 371.017,368.369 334.594,368.523 265.856 L 368.756 162.208 370.310 159.586 C 372.259 156.296,374.530 153.188,378.646 148.176 C 384.223 141.385,387.129 137.243,386.747 136.626 C 386.622 136.423,384.964 135.205,383.063 133.917 C 349.436 111.147,324.462 88.685,300.655 59.798 L 299.532 58.436 295.978 60.499 C 235.943 95.345,139.546 97.632,69.785 65.864 C 49.968 56.840,34.912 47.014,22.496 35.002 C 19.739 32.335,18.694 31.516,18.895 32.180 M280.946 131.326 C 290.567 137.864,297.837 143.797,304.731 150.740 L 308.808 154.845 307.932 162.081 C 307.088 169.046,307.059 170.200,307.139 192.921 L 307.222 216.524 303.003 217.694 C 276.506 225.041,247.141 225.339,220.954 218.528 C 210.677 215.855,211.756 217.984,211.667 200.187 C 211.515 169.383,215.252 152.812,225.102 140.620 L 227.160 138.073 231.580 138.073 C 247.248 138.073,262.596 134.701,271.756 129.245 C 275.248 127.166,274.611 127.021,280.946 131.326 M193.826 136.924 C 195.575 137.358,197.233 137.794,197.509 137.894 C 197.785 137.994,196.474 138.846,194.594 139.787 C 184.429 144.876,174.602 156.007,170.955 166.564 C 169.767 170.001,167.382 170.204,156.034 167.834 C 153.461 167.296,149.476 166.755,147.177 166.630 L 142.997 166.402 143.358 165.454 C 151.513 144.004,173.114 131.793,193.826 136.924 M150.713 195.305 C 153.330 195.695,156.693 196.129,158.185 196.268 L 160.898 196.521 160.898 274.360 L 160.898 352.198 159.770 351.973 C 156.759 351.371,151.979 351.290,145.219 351.728 C 141.134 351.993,137.350 352.098,136.810 351.963 L 135.828 351.716 135.828 272.901 L 135.828 194.086 140.890 194.340 C 143.675 194.480,148.095 194.914,150.713 195.305 M215.741 244.137 C 238.956 250.998,281.905 250.998,305.119 244.137 C 306.134 243.838,307.018 243.592,307.084 243.592 C 307.149 243.592,307.203 256.052,307.203 271.282 C 307.203 286.511,307.062 298.971,306.889 298.971 C 306.716 298.971,305.317 298.650,303.781 298.257 C 278.052 291.676,243.246 291.676,217.025 298.255 C 215.482 298.643,214.093 298.962,213.938 298.965 C 213.784 298.968,213.658 286.511,213.658 271.282 C 213.658 256.052,213.711 243.592,213.777 243.592 C 213.842 243.592,214.726 243.838,215.741 244.137 M272.606 319.737 C 284.703 320.745,293.170 322.228,303.461 325.141 L 307.016 326.147 307.111 370.519 L 307.206 414.891 304.594 415.153 C 293.010 416.317,284.305 421.287,272.291 433.596 C 258.127 448.108,253.226 452.223,251.123 451.366 C 250.582 451.145,246.688 449.375,242.470 447.431 C 219.301 436.757,203.794 432.641,183.939 431.894 L 176.610 431.618 180.029 426.754 C 206.461 389.155,215.993 362.980,214.066 333.293 C 213.558 325.460,213.130 326.303,218.335 324.867 C 235.742 320.062,254.842 318.257,272.606 319.737 " stroke="none" fill="#fc5404" fill-rule="evenodd"></path><path id="path2" d="M49.392 82.063 C 49.392 82.127,49.939 82.674,50.608 83.279 L 51.824 84.378 50.725 83.162 C 49.701 82.028,49.392 81.774,49.392 82.063 M327.409 89.242 C 328.107 89.963,328.762 90.552,328.865 90.552 C 328.968 90.552,328.481 89.963,327.783 89.242 C 327.085 88.522,326.429 87.933,326.327 87.933 C 326.224 87.933,326.711 88.522,327.409 89.242 M368.753 259.495 C 368.753 312.797,368.796 334.547,368.849 307.828 C 368.902 281.109,368.902 237.498,368.849 210.915 C 368.796 184.332,368.753 206.193,368.753 259.495 M306.923 194.761 C 306.927 195.585,307.004 195.877,307.093 195.412 C 307.183 194.946,307.180 194.273,307.086 193.915 C 306.992 193.557,306.919 193.938,306.923 194.761 M211.528 197.755 C 211.531 198.990,211.600 199.450,211.684 198.777 C 211.767 198.105,211.765 197.094,211.680 196.532 C 211.595 195.970,211.526 196.520,211.528 197.755 M35.343 223.106 L 33.863 224.696 35.454 223.217 C 36.328 222.403,37.044 221.688,37.044 221.627 C 37.044 221.343,36.718 221.627,35.343 223.106 M252.666 223.270 C 253.026 223.364,253.616 223.364,253.976 223.270 C 254.336 223.176,254.041 223.099,253.321 223.099 C 252.601 223.099,252.306 223.176,252.666 223.270 M266.885 223.270 C 267.245 223.364,267.834 223.364,268.195 223.270 C 268.555 223.176,268.260 223.099,267.540 223.099 C 266.819 223.099,266.525 223.176,266.885 223.270 M85.855 250.514 C 85.855 257.306,85.905 260.137,85.967 256.806 C 86.029 253.475,86.029 247.918,85.968 244.458 C 85.906 240.998,85.855 243.723,85.855 250.514 M25.934 247.147 C 25.937 248.382,26.006 248.842,26.090 248.169 C 26.173 247.497,26.171 246.486,26.086 245.924 C 26.001 245.362,25.932 245.912,25.934 247.147 M27.028 318.054 C 27.028 318.775,27.105 319.069,27.199 318.709 C 27.293 318.349,27.293 317.760,27.199 317.399 C 27.105 317.039,27.028 317.334,27.028 318.054 M259.027 319.449 C 259.799 319.530,261.062 319.530,261.833 319.449 C 262.605 319.369,261.974 319.303,260.430 319.303 C 258.887 319.303,258.255 319.369,259.027 319.449 M138.360 352.002 C 139.033 352.085,140.043 352.083,140.605 351.998 C 141.168 351.913,140.617 351.844,139.383 351.847 C 138.148 351.849,137.688 351.918,138.360 352.002 M92.177 375.491 C 92.178 377.138,92.244 377.764,92.323 376.884 C 92.402 376.004,92.401 374.657,92.321 373.891 C 92.240 373.125,92.176 373.845,92.177 375.491 " stroke="none" fill="#972f04" fill-rule="evenodd"></path><path id="path3" d="M47.147 79.818 C 47.147 79.882,47.694 80.429,48.363 81.034 L 49.579 82.133 48.480 80.917 C 47.456 79.783,47.147 79.529,47.147 79.818 M322.544 84.308 C 322.544 84.372,323.092 84.920,323.761 85.524 L 324.977 86.623 323.878 85.407 C 322.853 84.273,322.544 84.019,322.544 84.308 M173.714 88.205 C 174.486 88.286,175.748 88.286,176.520 88.205 C 177.292 88.124,176.660 88.058,175.117 88.058 C 173.573 88.058,172.942 88.124,173.714 88.205 M184.939 88.205 C 185.711 88.286,186.974 88.286,187.746 88.205 C 188.517 88.124,187.886 88.058,186.342 88.058 C 184.799 88.058,184.167 88.124,184.939 88.205 M124.421 133.209 L 118.815 139.008 124.592 133.317 C 127.770 130.187,130.293 127.577,130.199 127.517 C 130.105 127.458,127.505 130.019,124.421 133.209 M229.467 138.349 C 230.650 138.424,232.587 138.424,233.770 138.349 C 234.953 138.275,233.985 138.214,231.618 138.214 C 229.252 138.214,228.283 138.275,229.467 138.349 M302.339 148.737 C 303.456 149.869,304.455 150.795,304.558 150.795 C 304.661 150.795,303.831 149.869,302.713 148.737 C 301.595 147.605,300.596 146.679,300.493 146.679 C 300.390 146.679,301.221 147.605,302.339 148.737 M136.487 194.465 C 136.953 194.554,137.626 194.551,137.984 194.457 C 138.342 194.364,137.961 194.290,137.138 194.295 C 136.314 194.299,136.022 194.375,136.487 194.465 M306.923 197.381 C 306.927 198.204,307.004 198.497,307.093 198.031 C 307.183 197.566,307.180 196.892,307.086 196.534 C 306.992 196.177,306.919 196.558,306.923 197.381 M160.055 196.719 C 160.425 196.981,160.542 213.167,160.618 274.671 L 160.714 352.292 160.712 274.493 C 160.711 205.657,160.646 196.677,160.150 196.542 C 159.735 196.428,159.710 196.475,160.055 196.719 M251.543 293.242 C 251.904 293.336,252.493 293.336,252.853 293.242 C 253.213 293.148,252.919 293.071,252.198 293.071 C 251.478 293.071,251.183 293.148,251.543 293.242 M268.007 293.242 C 268.368 293.336,268.957 293.336,269.317 293.242 C 269.677 293.148,269.383 293.071,268.662 293.071 C 267.942 293.071,267.647 293.148,268.007 293.242 M150.711 351.257 C 151.592 351.336,152.939 351.335,153.705 351.254 C 154.471 351.174,153.751 351.109,152.105 351.110 C 150.458 351.112,149.831 351.178,150.711 351.257 M368.656 357.343 C 368.656 358.064,368.733 358.358,368.827 357.998 C 368.921 357.638,368.921 357.049,368.827 356.688 C 368.733 356.328,368.656 356.623,368.656 357.343 M148.649 374.824 C 149.218 374.910,150.059 374.908,150.520 374.819 C 150.980 374.730,150.514 374.660,149.486 374.663 C 148.457 374.665,148.080 374.738,148.649 374.824 M153.882 374.814 C 154.242 374.908,154.832 374.908,155.192 374.814 C 155.552 374.719,155.257 374.642,154.537 374.642 C 153.817 374.642,153.522 374.719,153.882 374.814 M136.483 375.207 C 137.769 375.280,139.874 375.280,141.160 375.207 C 142.446 375.134,141.394 375.074,138.821 375.074 C 136.249 375.074,135.196 375.134,136.483 375.207 M367.533 381.665 C 367.533 382.385,367.610 382.680,367.704 382.320 C 367.798 381.960,367.798 381.370,367.704 381.010 C 367.610 380.650,367.533 380.945,367.533 381.665 M367.205 391.207 C 367.204 393.059,367.267 393.864,367.345 392.995 C 367.424 392.127,367.425 390.612,367.348 389.628 C 367.270 388.644,367.206 389.355,367.205 391.207 M367.195 400.187 C 367.196 401.628,367.264 402.171,367.345 401.395 C 367.426 400.618,367.425 399.440,367.342 398.776 C 367.259 398.111,367.193 398.746,367.195 400.187 M73.894 419.925 L 70.159 423.761 73.994 420.026 C 76.104 417.972,77.830 416.246,77.830 416.190 C 77.830 415.920,77.363 416.363,73.894 419.925 M178.765 431.707 C 179.846 431.783,181.614 431.783,182.694 431.707 C 183.775 431.632,182.891 431.570,180.730 431.570 C 178.569 431.570,177.685 431.632,178.765 431.707 M283.809 505.239 L 280.449 508.700 283.910 505.340 C 287.125 502.219,287.542 501.777,287.270 501.777 C 287.214 501.777,285.657 503.335,283.809 505.239 M19.979 553.976 C 19.980 556.857,20.039 557.986,20.110 556.485 C 20.181 554.984,20.181 552.627,20.109 551.246 C 20.037 549.866,19.979 551.094,19.979 553.976 " stroke="none" fill="#591c04" fill-rule="evenodd"></path><path id="path4" d="M166.230 169.388 C 166.590 169.482,167.180 169.482,167.540 169.388 C 167.900 169.294,167.605 169.217,166.885 169.217 C 166.165 169.217,165.870 169.294,166.230 169.388 M306.916 175.491 C 306.916 176.211,306.993 176.506,307.087 176.146 C 307.181 175.786,307.181 175.196,307.087 174.836 C 306.993 174.476,306.916 174.771,306.916 175.491 M211.541 192.891 C 211.542 194.537,211.608 195.164,211.687 194.284 C 211.766 193.404,211.765 192.057,211.685 191.290 C 211.604 190.524,211.539 191.244,211.541 192.891 M306.936 191.768 C 306.939 192.797,307.011 193.174,307.097 192.605 C 307.183 192.036,307.181 191.194,307.092 190.734 C 307.003 190.274,306.933 190.739,306.936 191.768 M140.412 194.458 C 140.772 194.552,141.361 194.552,141.721 194.458 C 142.081 194.364,141.787 194.287,141.066 194.287 C 140.346 194.287,140.051 194.364,140.412 194.458 M211.543 202.806 C 211.543 204.556,211.608 205.271,211.687 204.397 C 211.765 203.522,211.765 202.091,211.687 201.216 C 211.608 200.341,211.543 201.057,211.543 202.806 M251.169 249.473 C 251.735 249.559,252.661 249.559,253.227 249.473 C 253.793 249.387,253.330 249.317,252.198 249.317 C 251.066 249.317,250.603 249.387,251.169 249.473 M267.638 249.473 C 268.207 249.559,269.049 249.557,269.509 249.468 C 269.970 249.379,269.504 249.309,268.475 249.312 C 267.446 249.315,267.070 249.387,267.638 249.473 M257.717 293.262 C 259.210 293.333,261.651 293.333,263.143 293.262 C 264.635 293.191,263.414 293.133,260.430 293.133 C 257.446 293.133,256.225 293.191,257.717 293.262 M27.053 315.061 C 27.053 316.193,27.123 316.656,27.209 316.090 C 27.295 315.524,27.295 314.598,27.209 314.032 C 27.123 313.466,27.053 313.929,27.053 315.061 M253.967 319.447 C 254.632 319.530,255.810 319.531,256.587 319.450 C 257.363 319.369,256.819 319.301,255.379 319.300 C 253.938 319.298,253.303 319.364,253.967 319.447 M264.070 319.447 C 264.734 319.530,265.913 319.531,266.690 319.450 C 267.466 319.369,266.922 319.301,265.482 319.300 C 264.041 319.298,263.406 319.364,264.070 319.447 M367.915 371.749 C 367.919 372.572,367.996 372.865,368.085 372.400 C 368.175 371.934,368.171 371.261,368.077 370.903 C 367.984 370.545,367.911 370.926,367.915 371.749 M110.547 416.183 L 109.448 417.399 110.664 416.300 C 111.798 415.276,112.052 414.967,111.763 414.967 C 111.699 414.967,111.152 415.514,110.547 416.183 M137.231 483.342 C 138.106 483.421,139.537 483.421,140.412 483.342 C 141.286 483.263,140.571 483.199,138.821 483.199 C 137.072 483.199,136.356 483.263,137.231 483.342 " stroke="none" fill="#c13c04" fill-rule="evenodd"></path></g></svg>