<svg id="svg" version="1.1" xmlns="http://www.w3.org/2000/svg" xmlns:xlink="http://www.w3.org/1999/xlink" width="400" height="500.87890625000006" viewBox="0, 0, 400,500.87890625000006"><g id="svgg"><path id="path0" d="M51.088 0.130 C 51.014 0.204,50.486 0.253,49.913 0.240 C 49.340 0.227,48.818 0.303,48.753 0.409 C 48.688 0.514,48.436 0.562,48.194 0.516 C 47.836 0.447,45.179 0.893,43.111 1.370 C 42.881 1.422,42.411 1.516,42.067 1.577 C 41.722 1.639,40.783 1.884,39.979 2.122 C 39.175 2.361,38.424 2.577,38.309 2.603 C 38.194 2.630,37.959 2.704,37.787 2.769 C 37.615 2.834,36.769 3.142,35.908 3.455 C 35.047 3.767,34.037 4.205,33.664 4.429 C 33.291 4.653,32.985 4.777,32.985 4.705 C 32.985 4.558,26.905 7.655,26.730 7.891 C 26.668 7.974,26.266 8.226,25.835 8.452 C 25.404 8.678,25.052 8.936,25.052 9.025 C 25.052 9.113,24.935 9.187,24.791 9.188 C 24.577 9.189,23.568 9.888,22.437 10.818 C 22.319 10.915,21.944 11.172,21.602 11.390 C 21.261 11.609,20.699 12.040,20.355 12.350 C 20.010 12.660,19.071 13.501,18.267 14.219 C 16.226 16.042,14.765 17.552,12.519 20.159 C 11.664 21.152,10.230 23.094,10.230 23.259 C 10.230 23.343,10.112 23.535,9.969 23.685 C 9.825 23.834,9.567 24.165,9.395 24.420 C 9.222 24.674,8.870 25.174,8.612 25.530 C 8.353 25.886,8.142 26.300,8.142 26.450 C 8.142 26.600,8.048 26.722,7.933 26.722 C 7.818 26.722,7.724 26.863,7.724 27.035 C 7.724 27.208,7.625 27.349,7.503 27.349 C 7.382 27.349,7.336 27.436,7.402 27.543 C 7.468 27.650,7.421 27.800,7.297 27.876 C 7.174 27.953,6.984 28.218,6.877 28.465 C 6.770 28.712,6.586 29.055,6.470 29.228 C 6.354 29.400,6.063 29.963,5.825 30.480 C 5.587 30.997,5.222 31.748,5.014 32.150 C 4.805 32.552,4.678 32.951,4.731 33.038 C 4.783 33.124,4.737 33.194,4.628 33.194 C 4.519 33.194,4.365 33.453,4.286 33.768 C 4.208 34.084,4.014 34.624,3.856 34.969 C 3.533 35.672,2.767 37.627,2.751 37.787 C 2.746 37.844,2.695 38.032,2.639 38.205 C 2.117 39.811,1.585 41.808,1.347 43.059 C 1.189 43.891,0.961 45.041,0.840 45.614 C 0.599 46.758,0.375 48.549,0.330 49.687 C 0.315 50.089,0.235 50.525,0.152 50.657 C -0.058 50.992,0.074 175.351,0.285 175.992 C 0.379 176.279,0.450 176.701,0.443 176.931 C 0.435 177.161,0.573 178.100,0.751 179.019 C 0.928 179.937,1.116 180.924,1.169 181.211 C 1.221 181.498,1.312 181.866,1.370 182.028 C 1.427 182.190,1.527 182.660,1.592 183.072 C 1.657 183.484,1.794 183.923,1.897 184.048 C 2.000 184.174,2.037 184.324,1.979 184.382 C 1.921 184.440,2.012 184.820,2.182 185.226 C 2.352 185.632,2.546 186.277,2.613 186.659 C 2.680 187.040,2.838 187.476,2.963 187.627 C 3.088 187.778,3.140 187.953,3.077 188.016 C 2.969 188.124,4.263 191.492,4.754 192.380 C 4.881 192.610,5.333 193.549,5.758 194.468 C 6.183 195.386,6.588 196.185,6.658 196.242 C 6.728 196.300,7.020 196.814,7.307 197.385 C 7.594 197.955,8.205 198.942,8.664 199.577 C 9.123 200.211,9.632 200.989,9.795 201.305 C 9.958 201.621,10.170 201.879,10.265 201.879 C 10.360 201.879,10.438 201.983,10.438 202.110 C 10.438 202.355,11.473 203.772,12.197 204.518 C 12.435 204.763,12.912 205.313,13.257 205.740 C 14.507 207.288,18.644 211.468,18.818 211.360 C 18.917 211.299,18.998 211.340,18.998 211.451 C 18.998 211.667,20.902 213.246,23.151 214.894 C 24.400 215.809,24.978 216.179,27.513 217.683 C 28.411 218.216,32.736 220.440,32.888 220.446 C 32.944 220.449,33.270 220.596,33.612 220.772 C 33.954 220.949,34.258 221.077,34.288 221.057 C 34.318 221.037,34.792 221.219,35.342 221.462 C 35.892 221.706,36.879 222.060,37.535 222.250 C 38.190 222.441,39.056 222.730,39.459 222.894 C 39.861 223.057,40.429 223.216,40.720 223.247 C 41.011 223.278,41.339 223.357,41.449 223.423 C 41.672 223.555,42.523 223.749,43.633 223.921 C 44.034 223.983,44.551 224.069,44.781 224.112 C 46.955 224.518,47.650 224.633,48.643 224.750 C 49.275 224.825,50.167 224.941,50.626 225.009 C 51.086 225.077,86.879 225.162,130.167 225.197 C 173.455 225.232,209.248 225.310,209.708 225.369 C 211.017 225.537,213.452 226.168,213.599 226.378 C 213.672 226.482,213.836 226.503,213.964 226.424 C 214.092 226.345,214.196 226.362,214.196 226.461 C 214.196 226.561,214.596 226.817,215.084 227.031 C 217.499 228.090,220.981 231.091,222.435 233.365 C 222.779 233.903,223.129 234.393,223.213 234.454 C 223.297 234.516,223.515 234.938,223.696 235.394 C 223.878 235.849,224.107 236.409,224.205 236.639 C 224.499 237.326,224.809 238.253,225.078 239.248 C 225.217 239.765,225.382 240.329,225.444 240.501 C 225.652 241.077,225.677 343.879,225.469 345.303 C 224.955 348.834,225.054 348.510,223.552 351.562 C 222.612 353.470,222.072 354.270,220.825 355.606 C 220.509 355.944,220.251 356.301,220.251 356.398 C 220.251 356.496,220.166 356.553,220.063 356.524 C 219.959 356.495,219.870 356.548,219.865 356.642 C 219.854 356.824,218.910 357.620,218.706 357.620 C 218.638 357.620,218.342 357.831,218.047 358.090 C 217.488 358.580,214.115 360.519,213.570 360.663 C 213.398 360.709,212.364 360.976,211.273 361.255 L 209.290 361.764 187.944 361.782 L 166.597 361.799 166.597 303.342 L 166.597 244.885 140.292 244.885 L 113.987 244.885 113.987 303.345 L 113.987 361.805 89.614 361.738 C 76.208 361.701,65.099 361.620,64.927 361.557 C 64.755 361.494,64.332 361.370,63.987 361.281 C 59.989 360.246,56.761 358.324,54.101 355.395 C 53.216 354.420,51.306 351.343,51.219 350.753 C 51.195 350.592,51.068 350.392,50.936 350.311 C 50.803 350.229,50.713 350.099,50.736 350.023 C 50.758 349.946,50.709 349.675,50.628 349.420 C 50.455 348.881,50.449 348.858,49.995 346.818 C 49.652 345.273,49.489 329.050,49.779 325.261 C 49.836 324.515,49.929 323.045,49.985 321.996 C 50.041 320.946,50.141 319.678,50.207 319.177 C 50.273 318.677,50.360 317.844,50.401 317.328 C 50.441 316.811,50.590 315.543,50.732 314.509 C 51.082 311.965,51.108 311.795,51.148 311.795 C 51.197 311.795,51.313 311.122,51.446 310.066 C 51.508 309.574,51.641 309.010,51.742 308.813 C 51.843 308.616,51.979 307.985,52.043 307.411 C 52.108 306.837,52.295 305.945,52.459 305.428 C 52.624 304.911,52.877 304.066,53.022 303.549 C 53.167 303.032,53.336 302.469,53.399 302.296 C 53.462 302.124,53.533 301.913,53.557 301.827 C 53.581 301.741,53.625 301.623,53.653 301.566 C 53.682 301.508,53.729 301.367,53.758 301.253 C 53.787 301.138,53.834 300.997,53.862 300.939 C 53.891 300.882,53.927 300.765,53.943 300.678 C 53.990 300.420,55.483 297.029,55.896 296.242 C 56.434 295.218,57.429 293.729,57.987 293.111 L 58.459 292.589 30.970 292.536 C 15.851 292.507,3.451 292.513,3.415 292.549 C 3.320 292.643,3.336 350.735,3.430 352.505 C 3.542 354.586,3.754 356.830,3.878 357.238 C 4.047 357.794,4.165 358.489,4.214 359.229 C 4.240 359.607,4.315 359.916,4.382 359.916 C 4.449 359.916,4.513 360.081,4.524 360.282 C 4.562 360.943,5.047 363.144,5.231 363.488 C 5.331 363.674,5.467 364.140,5.535 364.524 C 5.603 364.909,5.746 365.329,5.854 365.460 C 5.962 365.590,5.997 365.750,5.931 365.816 C 5.865 365.881,5.933 366.154,6.082 366.423 C 6.231 366.691,6.360 366.957,6.369 367.015 C 6.421 367.349,6.970 368.822,7.108 368.998 C 7.279 369.217,7.307 369.330,7.307 369.818 C 7.307 369.982,7.455 370.264,7.635 370.444 C 7.815 370.625,7.906 370.772,7.836 370.772 C 7.767 370.772,7.827 370.984,7.971 371.242 C 8.114 371.501,8.247 371.782,8.265 371.868 C 8.283 371.955,8.322 372.072,8.351 372.129 C 8.379 372.187,8.416 372.304,8.433 372.390 C 8.449 372.477,8.884 373.288,9.398 374.193 C 9.913 375.098,10.619 376.376,10.967 377.033 C 11.316 377.690,11.762 378.389,11.959 378.586 C 12.156 378.783,12.317 379.017,12.317 379.106 C 12.317 379.194,12.552 379.540,12.839 379.874 C 13.126 380.207,13.361 380.544,13.361 380.622 C 13.361 380.700,13.479 380.888,13.622 381.039 C 13.766 381.191,14.143 381.715,14.461 382.203 C 14.778 382.691,15.135 383.090,15.255 383.090 C 15.375 383.090,15.420 383.176,15.355 383.281 C 15.291 383.386,15.309 383.503,15.395 383.542 C 15.482 383.580,16.226 384.410,17.048 385.386 C 18.574 387.197,20.321 388.928,22.317 390.605 C 22.932 391.122,23.721 391.798,24.070 392.108 C 24.419 392.418,25.229 393.028,25.870 393.464 C 26.511 393.900,27.168 394.383,27.329 394.536 C 27.490 394.690,27.819 394.902,28.060 395.007 C 28.595 395.240,29.295 395.672,29.436 395.856 C 29.632 396.111,32.667 397.811,34.029 398.428 C 34.776 398.767,35.535 399.165,35.716 399.313 C 35.897 399.461,36.185 399.582,36.355 399.582 C 36.525 399.582,37.054 399.770,37.529 400.000 C 38.004 400.230,38.520 400.418,38.675 400.418 C 38.829 400.418,39.045 400.498,39.154 400.596 C 39.332 400.756,41.333 401.457,41.858 401.543 C 41.973 401.562,42.161 401.636,42.276 401.707 C 42.492 401.841,44.204 402.350,44.572 402.390 C 44.687 402.403,45.063 402.482,45.407 402.567 C 46.689 402.882,47.863 403.130,48.539 403.227 C 48.768 403.260,49.097 403.343,49.269 403.412 C 49.442 403.481,50.193 403.594,50.939 403.664 C 51.686 403.735,52.719 403.832,53.236 403.880 C 53.753 403.929,67.657 403.965,84.134 403.961 L 114.092 403.954 114.040 429.691 C 113.981 458.909,113.998 458.300,113.050 466.597 C 113.000 467.041,112.620 469.705,112.411 471.086 C 112.376 471.315,112.100 472.724,111.797 474.217 C 111.495 475.710,111.213 477.119,111.171 477.349 C 110.816 479.297,108.489 487.162,107.818 488.681 C 107.652 489.058,107.516 489.467,107.516 489.589 C 107.516 489.712,107.386 490.108,107.227 490.469 C 107.069 490.831,106.776 491.503,106.577 491.962 C 105.842 493.656,104.978 495.527,104.674 496.086 C 104.501 496.401,104.427 496.660,104.509 496.660 C 104.591 496.660,104.515 496.824,104.342 497.025 C 104.168 497.226,103.672 498.048,103.240 498.852 C 102.808 499.656,102.311 500.478,102.134 500.679 C 101.779 501.084,305.968 501.227,310.125 500.825 C 312.395 500.605,313.609 500.475,314.718 500.334 C 315.944 500.177,319.470 499.551,319.833 499.426 C 320.005 499.367,320.334 499.287,320.564 499.249 C 320.911 499.190,321.981 498.924,323.800 498.444 C 323.972 498.399,324.113 498.347,324.113 498.329 C 324.113 498.310,324.393 498.250,324.737 498.195 C 325.080 498.139,325.643 497.971,325.989 497.820 C 326.335 497.670,327.041 497.436,327.557 497.299 C 328.074 497.163,328.826 496.897,329.228 496.709 C 329.629 496.522,330.130 496.339,330.339 496.304 C 330.549 496.269,330.925 496.128,331.174 495.990 C 331.424 495.853,331.812 495.710,332.037 495.673 C 332.262 495.636,332.496 495.530,332.559 495.439 C 332.673 495.271,333.307 494.970,333.742 494.876 C 334.335 494.748,339.666 492.002,339.666 491.825 C 339.666 491.715,339.760 491.683,339.875 491.754 C 339.990 491.825,340.084 491.783,340.084 491.662 C 340.084 491.540,340.191 491.441,340.323 491.441 C 340.598 491.441,344.675 488.988,344.990 488.633 C 345.104 488.504,345.645 488.139,346.190 487.823 C 346.735 487.506,347.182 487.142,347.182 487.013 C 347.182 486.884,347.243 486.839,347.317 486.914 C 347.392 486.988,347.650 486.837,347.892 486.577 C 348.133 486.317,348.753 485.810,349.269 485.450 C 349.786 485.090,350.614 484.424,351.110 483.970 C 351.605 483.516,352.489 482.735,353.075 482.234 C 354.310 481.178,355.321 480.131,355.323 479.906 C 355.323 479.820,355.480 479.749,355.672 479.749 C 355.863 479.749,355.972 479.702,355.914 479.644 C 355.856 479.586,356.504 478.823,357.353 477.948 C 358.203 477.073,359.499 475.594,360.233 474.661 C 360.967 473.728,361.712 472.800,361.890 472.599 C 362.068 472.398,362.213 472.140,362.213 472.025 C 362.213 471.910,362.299 471.816,362.405 471.816 C 362.510 471.816,362.811 471.464,363.072 471.033 C 363.334 470.603,363.603 470.204,363.671 470.146 C 363.861 469.984,365.807 466.930,367.063 464.823 C 368.086 463.107,370.564 458.167,370.564 457.843 C 370.564 457.698,370.696 457.331,370.858 457.026 C 371.322 456.153,371.923 454.666,372.137 453.862 C 372.152 453.805,372.282 453.476,372.427 453.132 C 372.706 452.466,373.477 450.059,373.590 449.499 C 373.628 449.315,373.759 448.903,373.883 448.584 C 374.007 448.264,374.094 447.935,374.077 447.853 C 374.059 447.771,374.161 447.423,374.302 447.079 C 374.523 446.541,374.954 444.534,375.221 442.797 C 375.265 442.510,375.374 442.107,375.463 441.901 C 375.553 441.695,375.573 441.474,375.509 441.410 C 375.445 441.346,375.473 441.081,375.571 440.821 C 375.670 440.562,375.807 439.796,375.876 439.120 C 375.945 438.444,376.052 437.422,376.115 436.848 C 376.178 436.273,376.310 434.864,376.409 433.716 C 376.632 431.100,376.632 176.575,376.408 174.008 C 376.318 172.975,376.175 171.566,376.092 170.877 C 376.008 170.188,375.913 169.295,375.881 168.894 C 375.848 168.492,375.805 168.163,375.785 168.163 C 375.747 168.163,375.689 167.774,375.475 166.075 C 375.403 165.501,375.257 164.749,375.150 164.405 C 375.043 164.061,374.898 163.403,374.827 162.944 C 374.755 162.484,374.622 161.968,374.530 161.795 C 374.438 161.623,374.368 161.435,374.375 161.378 C 374.407 161.109,374.058 159.580,373.922 159.395 C 373.838 159.280,373.759 158.998,373.747 158.768 C 373.711 158.117,371.837 152.670,371.089 151.044 C 370.112 148.921,369.875 148.363,369.814 148.051 C 369.784 147.897,369.612 147.608,369.431 147.407 C 369.250 147.207,369.164 146.981,369.241 146.904 C 369.318 146.827,369.271 146.764,369.137 146.764 C 369.003 146.764,368.894 146.646,368.894 146.501 C 368.894 146.149,367.850 144.194,367.559 144.001 C 367.426 143.913,367.416 143.845,367.537 143.841 C 367.676 143.837,367.675 143.784,367.536 143.682 C 367.421 143.597,367.109 143.082,366.843 142.537 C 366.577 141.991,366.272 141.545,366.165 141.545 C 366.058 141.545,365.992 141.474,366.019 141.388 C 366.088 141.162,365.090 139.457,364.888 139.457 C 364.795 139.457,364.718 139.355,364.718 139.230 C 364.718 139.013,362.898 136.259,362.179 135.389 C 361.988 135.158,361.112 134.078,360.233 132.988 C 359.354 131.899,357.630 129.973,356.401 128.709 C 354.389 126.638,353.619 125.904,351.099 123.656 C 350.481 123.105,348.523 121.614,345.303 119.242 C 345.016 119.030,344.311 118.587,343.737 118.256 C 343.163 117.926,342.579 117.544,342.439 117.409 C 342.300 117.274,341.736 116.949,341.187 116.686 C 340.637 116.424,340.121 116.100,340.039 115.967 C 339.958 115.833,339.183 115.408,338.317 115.021 C 337.451 114.635,336.743 114.244,336.743 114.153 C 336.743 114.062,336.563 113.987,336.343 113.987 C 336.123 113.987,335.912 113.913,335.873 113.822 C 335.804 113.657,330.414 111.302,329.844 111.188 C 329.506 111.121,329.174 111.003,327.686 110.420 C 327.125 110.200,326.553 110.021,326.413 110.021 C 326.274 110.021,325.880 109.881,325.537 109.710 C 325.194 109.539,324.639 109.363,324.304 109.320 C 323.969 109.276,323.554 109.183,323.382 109.113 C 323.027 108.968,319.813 108.218,318.756 108.032 C 318.372 107.965,317.683 107.828,317.223 107.727 C 315.486 107.346,312.564 107.008,308.559 106.726 C 306.841 106.605,102.263 106.673,102.122 106.794 C 102.084 106.828,102.367 107.356,102.751 107.968 C 103.135 108.580,103.589 109.363,103.759 109.708 C 103.930 110.052,104.117 110.381,104.175 110.438 C 104.424 110.687,104.802 111.502,104.802 111.793 C 104.802 111.966,104.911 112.109,105.045 112.109 C 105.179 112.109,105.230 112.167,105.158 112.239 C 105.086 112.311,105.183 112.664,105.373 113.022 C 105.563 113.381,105.749 113.862,105.788 114.092 C 105.826 114.322,105.949 114.541,106.060 114.579 C 106.172 114.617,106.263 114.761,106.263 114.898 C 106.263 115.036,106.591 115.927,106.993 116.878 C 107.608 118.338,109.386 123.441,109.513 124.113 C 109.535 124.228,109.760 125.016,110.013 125.865 C 110.267 126.714,110.510 127.559,110.553 127.744 C 111.983 133.798,113.097 140.372,113.457 144.885 C 113.516 145.632,113.616 146.806,113.679 147.495 C 114.034 151.393,114.037 151.620,114.008 169.892 L 113.987 182.894 91.565 182.874 C 79.232 182.863,68.827 182.773,68.443 182.674 C 68.059 182.575,67.135 182.341,66.388 182.154 C 65.642 181.967,64.251 181.444,63.297 180.991 C 62.343 180.538,61.479 180.167,61.376 180.167 C 61.274 180.167,61.115 180.047,61.023 179.901 C 60.931 179.755,60.590 179.466,60.266 179.259 C 59.009 178.460,56.875 176.395,56.684 175.795 C 56.608 175.555,56.459 175.413,56.352 175.479 C 56.246 175.545,56.159 175.451,56.159 175.271 C 56.159 175.091,55.971 174.783,55.741 174.586 C 55.511 174.390,55.324 174.154,55.324 174.062 C 55.324 173.971,55.089 173.524,54.802 173.069 C 54.515 172.614,54.280 172.107,54.280 171.942 C 54.280 171.777,54.202 171.611,54.107 171.573 C 54.011 171.534,53.636 170.429,53.273 169.117 L 52.613 166.731 52.605 113.272 C 52.601 83.869,52.569 59.629,52.533 59.405 C 52.411 58.639,53.208 54.758,53.735 53.549 C 53.936 53.090,54.113 52.550,54.130 52.349 C 54.146 52.148,54.225 51.983,54.304 51.983 C 54.383 51.983,54.541 51.715,54.656 51.386 C 55.113 50.075,57.648 47.012,59.472 45.568 C 60.003 45.147,60.540 44.683,60.665 44.538 C 60.789 44.393,61.306 44.084,61.813 43.851 C 62.320 43.619,62.876 43.336,63.048 43.223 C 63.402 42.989,64.902 42.346,65.282 42.265 C 65.420 42.235,66.125 42.067,66.848 41.890 C 67.571 41.713,68.680 41.501,69.311 41.418 C 69.943 41.335,101.696 41.231,139.875 41.187 C 214.347 41.102,212.908 41.084,214.875 42.095 C 215.191 42.258,215.449 42.339,215.449 42.276 C 215.449 42.118,218.073 43.548,219.099 44.266 C 220.217 45.048,220.981 45.784,222.234 47.286 C 222.808 47.975,223.348 48.570,223.434 48.608 C 223.520 48.646,223.591 48.792,223.591 48.932 C 223.591 49.072,223.708 49.303,223.852 49.447 C 223.995 49.590,224.120 49.773,224.128 49.854 C 224.137 49.934,224.442 50.626,224.807 51.391 C 225.171 52.156,225.470 52.931,225.470 53.113 C 225.470 53.295,225.569 53.445,225.691 53.445 C 225.812 53.445,225.859 53.531,225.794 53.636 C 225.729 53.741,225.779 54.093,225.906 54.419 C 226.367 55.603,226.693 58.380,226.612 60.438 C 226.520 62.755,226.169 65.190,225.702 66.754 C 225.590 67.127,225.551 67.432,225.614 67.432 C 225.678 67.432,225.636 67.550,225.520 67.693 C 225.356 67.898,224.826 69.447,224.519 70.616 C 224.497 70.702,224.455 70.843,224.427 70.929 C 224.399 71.015,224.388 71.156,224.401 71.242 C 224.415 71.328,224.316 71.399,224.182 71.399 C 224.048 71.399,223.998 71.458,224.071 71.531 C 224.143 71.603,223.981 72.049,223.710 72.522 C 223.440 72.995,222.866 74.040,222.435 74.843 C 222.004 75.647,221.479 76.627,221.267 77.021 C 221.056 77.415,220.809 77.791,220.719 77.856 C 220.628 77.922,220.390 78.233,220.189 78.549 L 219.823 79.123 247.403 79.123 L 274.983 79.123 274.878 64.770 C 274.820 56.876,274.727 50.136,274.671 49.791 C 274.615 49.447,274.505 48.554,274.427 47.808 C 274.348 47.062,274.203 46.169,274.104 45.825 C 274.005 45.480,273.871 44.823,273.807 44.363 C 273.689 43.523,273.180 41.394,272.581 39.231 C 272.403 38.591,271.985 37.369,271.652 36.517 C 270.889 34.565,270.775 34.246,270.821 34.184 C 270.841 34.156,270.660 33.758,270.418 33.299 C 270.176 32.839,269.635 31.712,269.216 30.793 C 268.403 29.011,266.962 26.471,266.374 25.783 C 266.178 25.553,265.824 24.990,265.586 24.530 C 265.348 24.071,264.868 23.377,264.519 22.988 C 264.169 22.600,263.883 22.217,263.883 22.139 C 263.883 22.060,263.625 21.695,263.309 21.327 C 262.993 20.959,262.547 20.410,262.317 20.108 C 261.601 19.166,259.888 17.348,257.951 15.474 C 255.396 13.004,255.108 12.735,255.014 12.735 C 254.969 12.735,254.623 12.453,254.246 12.109 C 253.869 11.764,253.440 11.482,253.294 11.482 C 253.147 11.482,253.027 11.397,253.027 11.293 C 253.027 11.189,252.207 10.555,251.205 9.884 C 250.203 9.213,249.287 8.590,249.170 8.500 C 248.577 8.047,246.418 6.835,246.190 6.828 C 246.046 6.823,245.929 6.751,245.929 6.667 C 245.929 6.486,242.810 4.950,242.432 4.945 C 242.289 4.943,242.171 4.863,242.171 4.767 C 242.171 4.671,241.983 4.593,241.754 4.593 C 241.524 4.593,241.336 4.510,241.336 4.409 C 241.336 4.308,240.905 4.116,240.377 3.983 C 239.850 3.851,239.216 3.610,238.968 3.449 C 238.720 3.288,238.283 3.112,237.996 3.058 C 237.709 3.005,237.192 2.852,236.848 2.719 C 236.503 2.585,236.199 2.479,236.172 2.482 C 236.145 2.486,235.731 2.351,235.252 2.182 C 234.773 2.013,234.334 1.922,234.277 1.979 C 234.219 2.037,234.066 1.996,233.936 1.888 C 233.806 1.780,233.053 1.589,232.263 1.463 C 231.473 1.336,230.743 1.182,230.641 1.118 C 230.538 1.055,230.155 0.961,229.789 0.909 C 229.423 0.857,228.572 0.719,227.898 0.602 C 227.225 0.486,226.191 0.330,225.602 0.255 C 224.204 0.080,51.262 -0.045,51.088 0.130 M300.522 149.541 C 300.981 149.612,301.827 149.814,302.401 149.990 C 302.975 150.165,303.633 150.342,303.862 150.381 C 304.092 150.421,304.515 150.557,304.802 150.684 C 305.089 150.811,306.193 151.291,307.256 151.751 C 309.657 152.790,312.324 154.478,314.143 156.108 C 315.826 157.618,316.219 158.007,316.806 158.751 C 317.150 159.187,317.620 159.749,317.850 160.000 C 318.079 160.252,318.636 161.017,319.086 161.700 C 319.536 162.384,320.060 163.178,320.250 163.466 C 320.991 164.586,322.332 167.727,322.881 169.624 C 323.347 171.238,323.367 171.327,323.507 172.443 C 323.571 172.959,323.710 173.711,323.815 174.113 C 323.930 174.551,324.000 226.547,323.992 303.862 C 323.977 441.188,324.025 434.270,323.062 437.179 C 322.888 437.705,322.706 438.337,322.659 438.583 C 322.501 439.404,321.646 441.645,321.364 441.979 C 321.211 442.160,321.086 442.422,321.086 442.560 C 321.086 442.837,320.922 443.114,319.221 445.720 C 317.775 447.936,313.986 452.192,313.460 452.192 C 313.361 452.192,311.715 453.399,310.839 454.114 C 310.657 454.263,310.375 454.415,310.212 454.452 C 310.050 454.490,309.490 454.782,308.970 455.101 C 307.082 456.259,302.346 457.856,300.000 458.126 C 297.008 458.470,296.321 458.540,296.086 458.524 C 295.942 458.515,266.748 458.496,231.210 458.481 L 166.596 458.455 166.648 431.263 L 166.701 404.071 196.153 404.032 C 227.922 403.989,229.436 403.974,229.436 403.704 C 229.436 403.605,229.532 403.583,229.648 403.655 C 229.765 403.727,230.399 403.672,231.057 403.533 C 231.716 403.394,232.443 403.249,232.672 403.211 C 234.889 402.842,236.657 402.454,237.026 402.257 C 237.272 402.125,237.499 402.041,237.529 402.070 C 237.657 402.193,239.256 401.826,239.366 401.649 C 239.432 401.542,239.574 401.509,239.680 401.575 C 239.787 401.641,239.875 401.611,239.875 401.508 C 239.875 401.406,239.992 401.319,240.136 401.315 C 240.612 401.302,243.317 400.358,243.447 400.159 C 243.517 400.052,243.634 399.970,243.706 399.976 C 243.959 400.000,244.584 399.755,245.929 399.105 C 247.253 398.466,247.391 398.410,247.793 398.356 C 247.900 398.342,248.111 398.210,248.263 398.064 C 248.414 397.918,249.173 397.476,249.948 397.082 C 250.723 396.688,251.357 396.285,251.357 396.187 C 251.357 396.089,251.445 396.063,251.553 396.130 C 251.661 396.196,251.846 396.085,251.964 395.881 C 252.083 395.678,252.182 395.579,252.186 395.662 C 252.198 395.960,255.567 393.604,258.373 391.334 C 259.410 390.495,264.779 385.177,264.590 385.177 C 264.533 385.177,264.719 384.966,265.004 384.708 C 265.643 384.127,268.957 379.722,269.422 378.834 C 269.841 378.035,270.250 377.334,270.777 376.514 C 271.165 375.910,272.917 372.656,272.969 372.443 C 272.983 372.385,273.117 372.056,273.268 371.712 C 273.986 370.065,274.096 369.805,274.238 369.415 C 274.321 369.186,274.404 368.951,274.421 368.894 C 274.437 368.836,274.616 368.413,274.818 367.954 C 275.281 366.901,276.792 361.772,276.899 360.890 C 276.943 360.527,277.037 360.089,277.107 359.916 C 277.178 359.744,277.279 359.275,277.332 358.873 C 277.385 358.471,277.481 357.860,277.545 357.516 C 278.268 353.634,278.312 349.382,278.231 291.336 C 278.152 233.669,278.130 231.941,277.458 229.123 C 277.348 228.664,277.212 227.912,277.156 227.453 C 277.021 226.362,275.866 221.898,275.480 220.972 C 275.314 220.575,275.222 220.251,275.276 220.251 C 275.330 220.251,275.184 219.878,274.952 219.424 C 274.720 218.969,274.530 218.405,274.530 218.171 C 274.530 217.937,274.452 217.745,274.356 217.745 C 274.261 217.745,274.181 217.628,274.179 217.484 C 274.174 217.040,272.592 213.570,272.395 213.570 C 272.293 213.570,272.267 213.476,272.338 213.361 C 272.409 213.246,272.383 213.152,272.281 213.152 C 272.178 213.152,272.095 213.031,272.095 212.882 C 272.095 212.548,270.438 209.682,269.848 208.996 C 269.597 208.703,269.547 208.564,269.729 208.664 C 269.907 208.762,269.854 208.619,269.606 208.332 C 269.366 208.055,268.973 207.500,268.732 207.098 C 268.492 206.696,268.113 206.174,267.892 205.937 C 267.670 205.700,267.374 205.293,267.235 205.032 C 266.955 204.508,266.353 203.750,265.553 202.914 C 265.266 202.614,265.011 202.303,264.985 202.222 C 264.926 202.034,263.522 200.511,261.795 198.761 C 259.709 196.647,255.989 193.528,255.555 193.528 C 255.428 193.528,255.324 193.434,255.324 193.319 C 255.324 193.205,255.206 193.109,255.063 193.107 C 254.919 193.105,254.581 192.871,254.311 192.586 C 254.041 192.301,253.735 192.121,253.632 192.184 C 253.529 192.248,253.445 192.210,253.445 192.099 C 253.445 191.988,252.998 191.632,252.453 191.306 C 251.908 190.981,251.273 190.599,251.044 190.456 C 250.814 190.314,250.016 189.895,249.269 189.525 C 248.523 189.155,247.788 188.730,247.636 188.581 C 247.485 188.431,247.282 188.309,247.185 188.309 C 247.089 188.309,246.321 187.987,245.478 187.592 C 244.210 187.000,240.550 185.587,239.770 185.389 C 239.656 185.360,239.344 185.254,239.078 185.152 C 238.812 185.051,238.425 184.969,238.216 184.969 C 238.008 184.969,237.488 184.822,237.059 184.643 C 236.631 184.464,236.229 184.370,236.166 184.433 C 236.103 184.496,235.945 184.459,235.814 184.351 C 235.684 184.243,235.253 184.102,234.856 184.036 C 234.459 183.971,233.899 183.876,233.612 183.825 C 233.325 183.774,232.737 183.682,232.307 183.620 C 230.703 183.389,229.954 183.255,229.822 183.174 C 229.452 182.947,222.133 182.873,195.614 182.827 L 166.701 182.777 166.648 166.020 L 166.595 149.264 233.141 149.338 C 269.741 149.379,300.063 149.470,300.522 149.541 M369.311 484.342 L 369.311 486.013 371.503 486.013 L 373.695 486.013 373.695 493.528 L 373.695 501.044 375.783 501.044 L 377.871 501.044 377.871 493.528 L 377.871 486.013 379.958 486.013 L 382.046 486.013 382.046 484.342 L 382.046 482.672 375.678 482.672 L 369.311 482.672 369.311 484.342 M383.716 491.851 L 383.716 501.044 385.696 501.044 L 387.675 501.044 387.736 495.981 C 387.773 492.936,387.867 491.106,387.973 491.388 C 388.070 491.647,388.216 491.858,388.299 491.858 C 388.381 491.858,388.448 491.976,388.448 492.120 C 388.448 492.264,388.694 492.945,388.995 493.633 C 389.296 494.322,389.980 496.013,390.516 497.390 C 391.051 498.768,391.518 499.928,391.553 499.967 C 391.796 500.235,392.477 499.672,392.598 499.103 C 392.677 498.735,392.811 498.340,392.896 498.225 C 392.981 498.111,393.150 497.735,393.273 497.390 C 393.395 497.046,393.833 495.966,394.246 494.990 C 394.658 494.014,394.997 493.193,394.999 493.166 C 395.001 493.138,395.211 492.669,395.466 492.122 L 395.929 491.127 395.985 496.086 L 396.041 501.044 398.020 501.044 L 400.000 501.044 400.000 491.858 L 400.000 482.672 398.069 482.675 C 395.696 482.679,395.805 482.603,395.086 484.760 C 394.760 485.736,394.363 486.741,394.203 486.993 C 394.043 487.245,393.907 487.527,393.901 487.619 C 393.894 487.712,393.765 488.069,393.614 488.413 C 393.463 488.758,393.011 489.882,392.610 490.912 C 392.063 492.315,391.846 492.682,391.745 492.374 C 391.670 492.148,391.487 491.681,391.339 491.336 C 390.592 489.602,390.380 489.061,389.885 487.626 C 389.589 486.770,389.025 485.329,388.632 484.423 L 387.916 482.777 385.816 482.717 L 383.716 482.658 383.716 491.851 " stroke="none" fill="#fcc42c" fill-rule="evenodd"></path><path id="path1" d="M105.898 41.284 C 125.044 41.313,156.375 41.313,175.522 41.284 C 194.669 41.255,179.003 41.231,140.710 41.231 C 102.416 41.231,86.751 41.255,105.898 41.284 M220.459 45.479 C 220.459 45.576,220.647 45.826,220.877 46.033 C 221.106 46.241,221.294 46.350,221.294 46.275 C 221.294 46.199,221.106 45.950,220.877 45.720 C 220.647 45.491,220.459 45.382,220.459 45.479 M132.637 106.628 C 149.611 106.658,177.325 106.658,194.224 106.628 C 211.122 106.599,197.234 106.575,163.361 106.575 C 129.489 106.575,115.663 106.599,132.637 106.628 M81.905 182.829 C 87.856 182.860,97.533 182.860,103.408 182.829 C 109.284 182.798,104.415 182.773,92.589 182.773 C 80.762 182.773,75.954 182.798,81.905 182.829 M180.950 182.829 C 188.787 182.859,201.610 182.859,209.447 182.829 C 217.283 182.798,210.872 182.774,195.198 182.774 C 179.525 182.774,173.113 182.798,180.950 182.829 M50.550 315.797 C 50.535 316.046,50.468 316.422,50.402 316.632 C 50.288 316.994,50.294 316.995,50.520 316.643 C 50.651 316.439,50.718 316.063,50.668 315.808 C 50.579 315.345,50.579 315.345,50.550 315.797 M231.942 403.340 C 231.512 403.478,231.493 403.511,231.837 403.525 C 232.067 403.535,232.396 403.452,232.568 403.340 C 232.934 403.104,232.680 403.104,231.942 403.340 M71.868 404.123 C 79.648 404.153,92.377 404.153,100.157 404.123 C 107.936 404.093,101.571 404.068,86.013 404.068 C 70.454 404.068,64.089 404.093,71.868 404.123 M180.966 404.123 C 188.812 404.153,201.588 404.153,209.359 404.123 C 217.129 404.093,210.710 404.068,195.094 404.068 C 179.478 404.068,173.121 404.093,180.966 404.123 M369.176 484.238 C 369.176 485.271,369.211 485.720,369.255 485.236 C 369.299 484.751,369.299 483.906,369.256 483.357 C 369.213 482.808,369.177 483.205,369.176 484.238 M387.683 496.033 C 387.683 498.827,387.726 501.070,387.780 501.016 C 387.922 500.874,387.943 491.214,387.802 491.072 C 387.736 491.007,387.683 493.239,387.683 496.033 M395.785 491.388 C 395.749 491.474,395.770 493.706,395.831 496.347 L 395.941 501.148 395.987 496.190 C 396.029 491.724,395.993 490.882,395.785 491.388 " stroke="none" fill="#fcc424" fill-rule="evenodd"></path><path id="path2" d="" stroke="none" fill="#100c42c" fill-rule="evenodd"></path><path id="path3" d="" stroke="none" fill="#100c42c" fill-rule="evenodd"></path><path id="path4" d="" stroke="none" fill="#100c42c" fill-rule="evenodd"></path></g></svg>