<?xml version="1.0"?>
<svg version="1.1" xmlns="http://www.w3.org/2000/svg" width="400px" height="200px" style="border: dashed 2px #aaa"><path fill="#006c54" d="M50.23,99.31l0-3.91l13.662-0.23l0,4.14l-3.358,1.38l3.956,16.56l6.44-21.712l6.21-0.368l6.164,22.034l4.416-16.514l-3.45-1.38l0-3.91l13.11-0.23l0,4.14l-3.312,1.38l-7.866,26.91l-6.532,0l-6.026-21.85l-1.104,4.37l-5.29,17.48l-6.348,0l-7.452-26.956z M114.83746,102.3c7.452,0,11.592,4.508,11.592,12.42c0,8.28-4.83,13.34-12.282,13.34c-7.498,0-11.73-3.91-11.73-12.65c0-8.28,4.922-13.11,12.42-13.11z M114.60746,107.82c-3.358,0-5.06,1.84-5.06,7.36c0,5.06,1.472,7.36,4.83,7.36c3.312,0,4.922-2.07,4.922-7.59c0-4.692-1.38-7.13-4.692-7.13z M142.50692,102.76l0.414,3.174s3.312-3.634,6.394-3.634c2.53,0,4.278,0.828,4.278,0.828l-0.368,8.832l-4.14,0l-0.69-3.91c-2.668,0-4.968,2.576-4.968,2.576l0,12.144l4.6,1.15l0,3.68l-15.18,0l0-3.68l3.68-1.15l0-14.95l-3.68-1.15l0-3.68z M168.52038,112.006l3.036,0l3.128-4.692l-2.024-0.644l0-3.68l11.868-0.23l0,3.91l-3.22,0.598l-4.278,6.026l5.152,9.522l3.496,1.104l0,3.68l-8.51,0l-5.704-11.224l-2.944,0l0,6.394l2.53,1.15l0,3.68l-13.11,0l0-3.68l3.68-1.15l0-25.852l-3.68-0.92l0-3.68l10.58-0.368l0,20.056z M195.22384,119.55l0.368,2.99s1.61,0.46,3.864,0.46c2.53,0,3.772-0.782,3.772-2.254c0-3.772-12.282-2.392-12.282-10.58c0-5.75,4.6-7.866,9.476-7.866c4.14,0,8.556,1.38,8.556,1.38l-0.184,6.9l-3.91,0l-0.69-2.76s-1.334-0.46-3.174-0.46c-1.978,0-3.174,0.828-3.174,2.346c0,3.726,12.282,2.116,12.282,10.074c0,5.29-4.278,8.28-10.58,8.28c-4.37,0-8.464-1.012-8.464-1.012l0-7.498l4.14,0z M226.4353,91.95l0,13.478c1.334-1.104,4.324-3.128,7.728-3.128c4.692,0,7.222,3.128,7.222,8.28l0,12.19l3.22,1.15l0,3.68l-12.512,0l0-3.68l2.392-1.104l0-11.132c0-2.3-0.92-3.68-3.036-3.68c-2.576,0-5.014,2.438-5.014,2.438l0,12.328l2.438,1.15l0,3.68l-13.018,0l0-3.68l3.68-1.15l0-25.852l-3.68-0.92l0-3.68z M262.98276,102.3c7.452,0,11.592,4.508,11.592,12.42c0,8.28-4.83,13.34-12.282,13.34c-7.498,0-11.73-3.91-11.73-12.65c0-8.28,4.922-13.11,12.42-13.11z M262.75276,107.82c-3.358,0-5.06,1.84-5.06,7.36c0,5.06,1.472,7.36,4.83,7.36c3.312,0,4.922-2.07,4.922-7.59c0-4.692-1.38-7.13-4.692-7.13z M280.30222,102.99l9.798-0.23l0.414,2.576s3.128-3.036,6.808-3.036c6.394,0,9.568,4.738,9.568,12.19c0,8.51-4.048,13.57-12.098,13.57c-1.334,0-2.714-0.184-3.91-0.46l0,5.842l4.37,1.058l0,3.68l-14.858,0l0-3.68l3.588-1.058l0-25.622l-3.68-1.15l0-3.68z M290.88222,110.35l0,11.73c0.736,0.322,1.84,0.69,3.588,0.69c3.956,0,5.29-2.76,5.29-7.452c0-4.646-1.242-7.498-4.6-7.498c-2.99,0-4.278,2.53-4.278,2.53z"/><path fill="#" d=""/></svg>
